G04 (created by PCBNEW (2013-may-18)-stable) date Wed Jun 29 16:48:40 2016*
%MOIN*%
G04 Gerber Fmt 3.4, Leading zero omitted, Abs format*
%FSLAX34Y34*%
G01*
G70*
G90*
G04 APERTURE LIST*
%ADD10C,0.00590551*%
%ADD11R,0.03X0.02*%
%ADD12R,0.08X0.06*%
%ADD13R,0.06X0.08*%
%ADD14C,0.23622*%
%ADD15R,0.0787402X0.023622*%
%ADD16R,0.023622X0.0787402*%
%ADD17R,0.055X0.055*%
%ADD18C,0.055*%
%ADD19C,0.035*%
%ADD20C,0.01*%
G04 APERTURE END LIST*
G54D10*
G54D11*
X29578Y-10985D03*
X29578Y-10235D03*
X30578Y-10985D03*
X29578Y-10610D03*
X30578Y-10235D03*
G54D12*
X31692Y-12815D03*
X31692Y-11515D03*
G54D13*
X31692Y-10236D03*
X32992Y-10236D03*
G54D12*
X12106Y-12953D03*
X12106Y-11653D03*
G54D14*
X35000Y-11003D03*
X35000Y-8248D03*
G54D15*
X17421Y-11161D03*
X17421Y-11661D03*
X17421Y-12161D03*
X17421Y-10661D03*
X17421Y-10161D03*
X14074Y-12161D03*
X14074Y-11661D03*
X14074Y-11161D03*
X14074Y-10661D03*
X14074Y-10161D03*
G54D16*
X16748Y-12834D03*
X16248Y-12834D03*
X15748Y-12834D03*
X15248Y-12834D03*
X14748Y-12834D03*
X14748Y-9488D03*
X15248Y-9488D03*
X15748Y-9488D03*
X16248Y-9488D03*
X16748Y-9488D03*
G54D17*
X20740Y-5606D03*
G54D18*
X19740Y-5606D03*
X18740Y-5606D03*
X17740Y-5606D03*
X16740Y-5606D03*
X15740Y-5606D03*
X14740Y-5606D03*
X13740Y-5606D03*
X12740Y-5606D03*
X11740Y-5606D03*
X11740Y-8606D03*
X12740Y-8606D03*
X13740Y-8606D03*
X14740Y-8606D03*
X15740Y-8606D03*
X16740Y-8606D03*
X17740Y-8606D03*
X18740Y-8606D03*
X19740Y-8606D03*
X20740Y-8606D03*
G54D17*
X31940Y-5606D03*
G54D18*
X30940Y-5606D03*
X29940Y-5606D03*
X28940Y-5606D03*
X27940Y-5606D03*
X26940Y-5606D03*
X25940Y-5606D03*
X24940Y-5606D03*
X23940Y-5606D03*
X22940Y-5606D03*
X22940Y-8606D03*
X23940Y-8606D03*
X24940Y-8606D03*
X25940Y-8606D03*
X26940Y-8606D03*
X27940Y-8606D03*
X28940Y-8606D03*
X29940Y-8606D03*
X30940Y-8606D03*
X31940Y-8606D03*
X9763Y-7964D03*
X9763Y-8964D03*
X9763Y-9952D03*
X9763Y-10952D03*
G54D19*
X28188Y-10885D03*
X23208Y-9527D03*
X14960Y-11496D03*
X16240Y-10334D03*
X16574Y-11181D03*
X25354Y-12224D03*
X18326Y-11535D03*
X15118Y-10570D03*
X21830Y-8543D03*
X15334Y-11830D03*
X28661Y-11830D03*
X31122Y-10866D03*
X28523Y-10531D03*
X32893Y-8110D03*
X27303Y-11830D03*
X17539Y-12755D03*
X11358Y-11358D03*
X11279Y-10511D03*
G54D20*
X27913Y-10374D02*
X27933Y-10374D01*
X27933Y-10393D02*
X27913Y-10374D01*
X27933Y-10629D02*
X27933Y-10393D01*
X28188Y-10885D02*
X27933Y-10629D01*
X23248Y-9566D02*
X23208Y-9527D01*
X27834Y-9566D02*
X23248Y-9566D01*
X27933Y-9665D02*
X27834Y-9566D01*
X27933Y-10374D02*
X27933Y-9665D01*
X14074Y-11661D02*
X14795Y-11661D01*
X14795Y-11661D02*
X14960Y-11496D01*
X16240Y-10334D02*
X16574Y-10669D01*
X16574Y-10669D02*
X16574Y-11181D01*
X14074Y-11661D02*
X12294Y-11661D01*
X12294Y-11661D02*
X12125Y-11830D01*
X29578Y-10610D02*
X29311Y-10610D01*
X29311Y-10610D02*
X26948Y-12972D01*
X26948Y-12972D02*
X26948Y-12992D01*
X26948Y-12992D02*
X26948Y-12972D01*
X26102Y-12972D02*
X25354Y-12224D01*
X26948Y-12972D02*
X26102Y-12972D01*
X18200Y-11661D02*
X17421Y-11661D01*
X18326Y-11535D02*
X18200Y-11661D01*
X17421Y-11661D02*
X16248Y-11661D01*
X16248Y-11661D02*
X15157Y-10570D01*
X15157Y-10570D02*
X15118Y-10570D01*
X17421Y-11161D02*
X18185Y-11161D01*
X18185Y-11161D02*
X20740Y-8606D01*
X14074Y-10661D02*
X13795Y-10661D01*
X13795Y-10661D02*
X11740Y-8606D01*
X17421Y-10661D02*
X17685Y-10661D01*
X17685Y-10661D02*
X19740Y-8606D01*
X17421Y-10161D02*
X17421Y-9925D01*
X17421Y-9925D02*
X18740Y-8606D01*
X16748Y-9488D02*
X16858Y-9488D01*
X16858Y-9488D02*
X17740Y-8606D01*
X16248Y-9488D02*
X16248Y-9098D01*
X16248Y-9098D02*
X16740Y-8606D01*
X15740Y-8606D02*
X15740Y-9480D01*
X15740Y-9480D02*
X15748Y-9488D01*
X15248Y-9488D02*
X15248Y-9114D01*
X15248Y-9114D02*
X14740Y-8606D01*
X14748Y-9488D02*
X14622Y-9488D01*
X14622Y-9488D02*
X13740Y-8606D01*
X14074Y-10161D02*
X14074Y-9940D01*
X14074Y-9940D02*
X12740Y-8606D01*
X35000Y-8248D02*
X33937Y-8248D01*
X23169Y-7204D02*
X22657Y-7716D01*
X32893Y-7204D02*
X23169Y-7204D01*
X33937Y-8248D02*
X32893Y-7204D01*
X35000Y-8248D02*
X34980Y-8248D01*
X34980Y-8248D02*
X32992Y-10236D01*
X16248Y-12834D02*
X16248Y-12586D01*
X21830Y-8543D02*
X22657Y-7716D01*
X15492Y-11830D02*
X15334Y-11830D01*
X16248Y-12586D02*
X15492Y-11830D01*
X34881Y-7539D02*
X35610Y-8267D01*
X22657Y-7716D02*
X22834Y-7539D01*
X29506Y-10985D02*
X29578Y-10985D01*
X28661Y-11830D02*
X29506Y-10985D01*
X29578Y-10985D02*
X29981Y-10985D01*
X31692Y-12637D02*
X31692Y-12815D01*
X30472Y-11417D02*
X31692Y-12637D01*
X30413Y-11417D02*
X30472Y-11417D01*
X29981Y-10985D02*
X30413Y-11417D01*
X9763Y-7964D02*
X9763Y-7582D01*
X9763Y-7582D02*
X11740Y-5606D01*
X30578Y-10985D02*
X31002Y-10985D01*
X31002Y-10985D02*
X31122Y-10866D01*
X29862Y-9192D02*
X28523Y-10531D01*
X32539Y-9192D02*
X29862Y-9192D01*
X32893Y-8110D02*
X32539Y-9192D01*
X9763Y-7964D02*
X10129Y-7964D01*
X13326Y-11161D02*
X14074Y-11161D01*
X10129Y-7964D02*
X13326Y-11161D01*
X12740Y-5606D02*
X13740Y-5606D01*
X13740Y-5606D02*
X14740Y-5606D01*
X14740Y-5606D02*
X15740Y-5606D01*
X15740Y-5606D02*
X16740Y-5606D01*
X16740Y-5606D02*
X17740Y-5606D01*
X17740Y-5606D02*
X18740Y-5606D01*
X18740Y-5606D02*
X19740Y-5606D01*
X19740Y-5606D02*
X20740Y-5606D01*
X20740Y-5606D02*
X22940Y-5606D01*
X22940Y-5606D02*
X23940Y-5606D01*
X23940Y-5606D02*
X24940Y-5606D01*
X24940Y-5606D02*
X25940Y-5606D01*
X25940Y-5606D02*
X26940Y-5606D01*
X26940Y-5606D02*
X27940Y-5606D01*
X27940Y-5606D02*
X28940Y-5606D01*
X28940Y-5606D02*
X29940Y-5606D01*
X29940Y-5606D02*
X30940Y-5606D01*
X30940Y-5606D02*
X31940Y-5606D01*
X14074Y-11161D02*
X15137Y-11161D01*
X15137Y-11161D02*
X16137Y-12161D01*
X16137Y-12161D02*
X17421Y-12161D01*
X27303Y-11830D02*
X27362Y-11830D01*
X28326Y-11259D02*
X28937Y-10649D01*
X27933Y-11259D02*
X28326Y-11259D01*
X27362Y-11830D02*
X27933Y-11259D01*
X29312Y-10235D02*
X29578Y-10235D01*
X28937Y-10649D02*
X28937Y-10610D01*
X28937Y-10610D02*
X29312Y-10235D01*
X17460Y-12834D02*
X16748Y-12834D01*
X17539Y-12755D02*
X17460Y-12834D01*
X11358Y-10590D02*
X11358Y-11358D01*
X11279Y-10511D02*
X11358Y-10590D01*
X14748Y-12834D02*
X12421Y-12834D01*
X12421Y-12834D02*
X12125Y-13130D01*
X15748Y-12834D02*
X15748Y-12381D01*
X14748Y-12259D02*
X14748Y-12834D01*
X14842Y-12165D02*
X14748Y-12259D01*
X15531Y-12165D02*
X14842Y-12165D01*
X15748Y-12381D02*
X15531Y-12165D01*
X31692Y-10236D02*
X31692Y-11514D01*
X31692Y-11514D02*
X31692Y-11515D01*
X30578Y-10235D02*
X31691Y-10235D01*
X31691Y-10235D02*
X31692Y-10236D01*
M02*
