G04 (created by PCBNEW (2013-may-18)-stable) date Wed Jun 29 16:48:40 2016*
%MOIN*%
G04 Gerber Fmt 3.4, Leading zero omitted, Abs format*
%FSLAX34Y34*%
G01*
G70*
G90*
G04 APERTURE LIST*
%ADD10C,0.00590551*%
%ADD11R,0.03X0.02*%
%ADD12R,0.08X0.06*%
%ADD13R,0.06X0.08*%
%ADD14C,0.23622*%
%ADD15R,0.0787402X0.023622*%
%ADD16R,0.023622X0.0787402*%
%ADD17R,0.055X0.055*%
%ADD18C,0.055*%
G04 APERTURE END LIST*
G54D10*
G54D11*
X29578Y-10985D03*
X29578Y-10235D03*
X30578Y-10985D03*
X29578Y-10610D03*
X30578Y-10235D03*
G54D12*
X31692Y-12815D03*
X31692Y-11515D03*
G54D13*
X31692Y-10236D03*
X32992Y-10236D03*
G54D12*
X12106Y-12953D03*
X12106Y-11653D03*
G54D14*
X35000Y-11003D03*
X35000Y-8248D03*
G54D15*
X17421Y-11161D03*
X17421Y-11661D03*
X17421Y-12161D03*
X17421Y-10661D03*
X17421Y-10161D03*
X14074Y-12161D03*
X14074Y-11661D03*
X14074Y-11161D03*
X14074Y-10661D03*
X14074Y-10161D03*
G54D16*
X16748Y-12834D03*
X16248Y-12834D03*
X15748Y-12834D03*
X15248Y-12834D03*
X14748Y-12834D03*
X14748Y-9488D03*
X15248Y-9488D03*
X15748Y-9488D03*
X16248Y-9488D03*
X16748Y-9488D03*
G54D17*
X20740Y-5606D03*
G54D18*
X19740Y-5606D03*
X18740Y-5606D03*
X17740Y-5606D03*
X16740Y-5606D03*
X15740Y-5606D03*
X14740Y-5606D03*
X13740Y-5606D03*
X12740Y-5606D03*
X11740Y-5606D03*
X11740Y-8606D03*
X12740Y-8606D03*
X13740Y-8606D03*
X14740Y-8606D03*
X15740Y-8606D03*
X16740Y-8606D03*
X17740Y-8606D03*
X18740Y-8606D03*
X19740Y-8606D03*
X20740Y-8606D03*
G54D17*
X31940Y-5606D03*
G54D18*
X30940Y-5606D03*
X29940Y-5606D03*
X28940Y-5606D03*
X27940Y-5606D03*
X26940Y-5606D03*
X25940Y-5606D03*
X24940Y-5606D03*
X23940Y-5606D03*
X22940Y-5606D03*
X22940Y-8606D03*
X23940Y-8606D03*
X24940Y-8606D03*
X25940Y-8606D03*
X26940Y-8606D03*
X27940Y-8606D03*
X28940Y-8606D03*
X29940Y-8606D03*
X30940Y-8606D03*
X31940Y-8606D03*
X9763Y-7964D03*
X9763Y-8964D03*
X9763Y-9952D03*
X9763Y-10952D03*
M02*
