M48
;DRILL file {Pcbnew (2013-may-18)-stable} date Wed Jun 29 16:48:51 2016
;FORMAT={-:-/ absolute / inch / decimal}
FMAT,2
INCH,TZ
T1C0.025
T2C0.032
T3C0.177
%
G90
G05
M72
T1
X1.128Y-1.0512
X1.1358Y-1.1358
X1.4961Y-1.1496
X1.5118Y-1.0571
X1.5335Y-1.1831
X1.624Y-1.0335
X1.6575Y-1.1181
X1.7539Y-1.2756
X1.8327Y-1.1535
X2.1831Y-0.8543
X2.3209Y-0.9528
X2.5354Y-1.2224
X2.7303Y-1.1831
X2.8189Y-1.0886
X2.8524Y-1.0531
X2.8661Y-1.1831
X3.1122Y-1.0866
X3.2894Y-0.811
T2
X0.9764Y-0.7965
X0.9764Y-0.8965
X0.9764Y-0.9953
X0.9764Y-1.0953
X1.174Y-0.5606
X1.174Y-0.8606
X1.274Y-0.5606
X1.274Y-0.8606
X1.374Y-0.5606
X1.374Y-0.8606
X1.474Y-0.5606
X1.474Y-0.8606
X1.574Y-0.5606
X1.574Y-0.8606
X1.674Y-0.5606
X1.674Y-0.8606
X1.774Y-0.5606
X1.774Y-0.8606
X1.874Y-0.5606
X1.874Y-0.8606
X1.974Y-0.5606
X1.974Y-0.8606
X2.074Y-0.5606
X2.074Y-0.8606
X2.2941Y-0.5606
X2.2941Y-0.8606
X2.3941Y-0.5606
X2.3941Y-0.8606
X2.4941Y-0.5606
X2.4941Y-0.8606
X2.5941Y-0.5606
X2.5941Y-0.8606
X2.6941Y-0.5606
X2.6941Y-0.8606
X2.7941Y-0.5606
X2.7941Y-0.8606
X2.8941Y-0.5606
X2.8941Y-0.8606
X2.9941Y-0.5606
X2.9941Y-0.8606
X3.0941Y-0.5606
X3.0941Y-0.8606
X3.1941Y-0.5606
X3.1941Y-0.8606
T3
X3.5Y-0.8248
X3.5Y-1.1004
T0
M30
