G04 (created by PCBNEW (2013-may-18)-stable) date Wed Jun 29 16:48:40 2016*
%MOIN*%
G04 Gerber Fmt 3.4, Leading zero omitted, Abs format*
%FSLAX34Y34*%
G01*
G70*
G90*
G04 APERTURE LIST*
%ADD10C,0.00590551*%
%ADD11R,0.08X0.06*%
%ADD12C,0.23622*%
%ADD13R,0.0472441X0.0472441*%
%ADD14R,0.0629921X0.0590551*%
%ADD15R,0.0787402X0.023622*%
%ADD16R,0.023622X0.0787402*%
%ADD17R,0.055X0.055*%
%ADD18C,0.055*%
%ADD19C,0.035*%
%ADD20C,0.01*%
G04 APERTURE END LIST*
G54D10*
G54D11*
X31338Y-12953D03*
X31338Y-11653D03*
G54D12*
X35000Y-11003D03*
X35000Y-8248D03*
G54D13*
X21496Y-11594D03*
X22283Y-11594D03*
G54D14*
X21889Y-10314D03*
G54D15*
X26259Y-11161D03*
X26259Y-11661D03*
X26259Y-12161D03*
X26259Y-10661D03*
X26259Y-10161D03*
X29606Y-12161D03*
X29606Y-11661D03*
X29606Y-11161D03*
X29606Y-10661D03*
X29606Y-10161D03*
G54D16*
X26933Y-12834D03*
X27433Y-12834D03*
X27933Y-12834D03*
X28433Y-12834D03*
X28933Y-12834D03*
X28933Y-9488D03*
X28433Y-9488D03*
X27933Y-9488D03*
X27433Y-9488D03*
X26933Y-9488D03*
G54D17*
X20740Y-5606D03*
G54D18*
X19740Y-5606D03*
X18740Y-5606D03*
X17740Y-5606D03*
X16740Y-5606D03*
X15740Y-5606D03*
X14740Y-5606D03*
X13740Y-5606D03*
X12740Y-5606D03*
X11740Y-5606D03*
X11740Y-8606D03*
X12740Y-8606D03*
X13740Y-8606D03*
X14740Y-8606D03*
X15740Y-8606D03*
X16740Y-8606D03*
X17740Y-8606D03*
X18740Y-8606D03*
X19740Y-8606D03*
X20740Y-8606D03*
G54D17*
X31940Y-5606D03*
G54D18*
X30940Y-5606D03*
X29940Y-5606D03*
X28940Y-5606D03*
X27940Y-5606D03*
X26940Y-5606D03*
X25940Y-5606D03*
X24940Y-5606D03*
X23940Y-5606D03*
X22940Y-5606D03*
X22940Y-8606D03*
X23940Y-8606D03*
X24940Y-8606D03*
X25940Y-8606D03*
X26940Y-8606D03*
X27940Y-8606D03*
X28940Y-8606D03*
X29940Y-8606D03*
X30940Y-8606D03*
X31940Y-8606D03*
X9763Y-7964D03*
X9763Y-8964D03*
X9763Y-9952D03*
X9763Y-10952D03*
G54D19*
X28188Y-10885D03*
X23208Y-9527D03*
X14960Y-11496D03*
X16240Y-10334D03*
X16574Y-11181D03*
X25354Y-12224D03*
X18326Y-11535D03*
X15118Y-10570D03*
X21830Y-8543D03*
X15334Y-11830D03*
X28661Y-11830D03*
X31122Y-10866D03*
X28523Y-10531D03*
X32893Y-8110D03*
X27303Y-11830D03*
X17539Y-12755D03*
X11358Y-11358D03*
X11279Y-10511D03*
G54D20*
X29606Y-11661D02*
X29161Y-11661D01*
X28877Y-11377D02*
X28346Y-11377D01*
X29161Y-11661D02*
X28877Y-11377D01*
X28248Y-10944D02*
X28188Y-10885D01*
X28248Y-11279D02*
X28248Y-10944D01*
X28346Y-11377D02*
X28248Y-11279D01*
X22421Y-10314D02*
X21889Y-10314D01*
X23208Y-9527D02*
X22421Y-10314D01*
X29606Y-11661D02*
X31330Y-11661D01*
X31330Y-11661D02*
X31338Y-11653D01*
X14960Y-11496D02*
X16122Y-10334D01*
X16122Y-10334D02*
X16240Y-10334D01*
X16574Y-11181D02*
X17440Y-10314D01*
X17440Y-10314D02*
X21889Y-10314D01*
X26259Y-11161D02*
X25496Y-11161D01*
X25496Y-11161D02*
X22940Y-8606D01*
X29606Y-10661D02*
X29885Y-10661D01*
X29885Y-10661D02*
X31940Y-8606D01*
X26259Y-10661D02*
X25996Y-10661D01*
X25996Y-10661D02*
X23940Y-8606D01*
X26259Y-10161D02*
X26259Y-9925D01*
X26259Y-9925D02*
X24940Y-8606D01*
X26933Y-9488D02*
X26822Y-9488D01*
X26822Y-9488D02*
X25940Y-8606D01*
X27433Y-9488D02*
X27433Y-9098D01*
X27433Y-9098D02*
X26940Y-8606D01*
X27933Y-9488D02*
X27933Y-8614D01*
X27933Y-8614D02*
X27940Y-8606D01*
X28433Y-9488D02*
X28433Y-9114D01*
X28433Y-9114D02*
X28940Y-8606D01*
X28933Y-9488D02*
X29059Y-9488D01*
X29059Y-9488D02*
X29940Y-8606D01*
X29606Y-10161D02*
X29606Y-9940D01*
X29606Y-9940D02*
X30940Y-8606D01*
X25334Y-12204D02*
X25334Y-11594D01*
X25354Y-12224D02*
X25334Y-12204D01*
X22283Y-11594D02*
X22283Y-11240D01*
X18759Y-11102D02*
X18326Y-11535D01*
X22145Y-11102D02*
X18759Y-11102D01*
X22283Y-11240D02*
X22145Y-11102D01*
X22283Y-11594D02*
X25334Y-11594D01*
X25334Y-11594D02*
X26192Y-11594D01*
X26192Y-11594D02*
X26259Y-11661D01*
X15118Y-10570D02*
X14736Y-10952D01*
X14736Y-10952D02*
X9763Y-10952D01*
X21062Y-9311D02*
X21830Y-8543D01*
X17854Y-9311D02*
X21062Y-9311D01*
X15334Y-11830D02*
X17854Y-9311D01*
X27433Y-12834D02*
X27433Y-12409D01*
X28011Y-11830D02*
X28661Y-11830D01*
X27433Y-12409D02*
X28011Y-11830D01*
X28523Y-10531D02*
X27066Y-10531D01*
X26893Y-10704D02*
X26893Y-11295D01*
X27066Y-10531D02*
X26893Y-10704D01*
X26893Y-11295D02*
X26893Y-12161D01*
X26893Y-12161D02*
X26259Y-12161D01*
X30826Y-11161D02*
X29606Y-11161D01*
X31122Y-10866D02*
X30826Y-11161D01*
X31940Y-5606D02*
X31940Y-6625D01*
X28543Y-10551D02*
X28543Y-11161D01*
X28523Y-10531D02*
X28543Y-10551D01*
X31940Y-6625D02*
X32893Y-8110D01*
X29606Y-11161D02*
X28543Y-11161D01*
X35000Y-11003D02*
X34960Y-11003D01*
X11437Y-7854D02*
X10326Y-8964D01*
X10326Y-8964D02*
X9763Y-8964D01*
X32440Y-7854D02*
X11437Y-7854D01*
X32440Y-8484D02*
X32440Y-7854D01*
X34960Y-11003D02*
X32440Y-8484D01*
X26933Y-12834D02*
X26933Y-12437D01*
X26933Y-12437D02*
X27303Y-12066D01*
X27303Y-12066D02*
X27303Y-11830D01*
X17539Y-12755D02*
X26854Y-12755D01*
X26854Y-12755D02*
X26933Y-12834D01*
X9763Y-9952D02*
X10720Y-9952D01*
X12755Y-12755D02*
X17539Y-12755D01*
X11358Y-11358D02*
X12755Y-12755D01*
X10720Y-9952D02*
X11279Y-10511D01*
X9763Y-8964D02*
X9763Y-9952D01*
X27933Y-12834D02*
X27933Y-12322D01*
X28933Y-12377D02*
X28933Y-12834D01*
X28759Y-12204D02*
X28933Y-12377D01*
X28051Y-12204D02*
X28759Y-12204D01*
X27933Y-12322D02*
X28051Y-12204D01*
X28933Y-12834D02*
X31220Y-12834D01*
X31220Y-12834D02*
X31338Y-12953D01*
M02*
