G04 (created by PCBNEW (2013-may-18)-stable) date Thu Jun 15 09:17:52 2017*
%MOIN*%
G04 Gerber Fmt 3.4, Leading zero omitted, Abs format*
%FSLAX34Y34*%
G01*
G70*
G90*
G04 APERTURE LIST*
%ADD10C,0.00590551*%
%ADD11C,0.011811*%
%ADD12C,0.005*%
G04 APERTURE END LIST*
G54D10*
G54D11*
X28115Y-6616D02*
X28115Y-7095D01*
X28087Y-7151D01*
X28059Y-7179D01*
X28003Y-7207D01*
X27890Y-7207D01*
X27834Y-7179D01*
X27806Y-7151D01*
X27778Y-7095D01*
X27778Y-6616D01*
X27384Y-6616D02*
X27272Y-6616D01*
X27215Y-6645D01*
X27159Y-6701D01*
X27131Y-6813D01*
X27131Y-7010D01*
X27159Y-7123D01*
X27215Y-7179D01*
X27272Y-7207D01*
X27384Y-7207D01*
X27440Y-7179D01*
X27497Y-7123D01*
X27525Y-7010D01*
X27525Y-6813D01*
X27497Y-6701D01*
X27440Y-6645D01*
X27384Y-6616D01*
X26878Y-7207D02*
X26878Y-6813D01*
X26878Y-6926D02*
X26850Y-6870D01*
X26822Y-6841D01*
X26766Y-6813D01*
X26709Y-6813D01*
X26287Y-7179D02*
X26344Y-7207D01*
X26456Y-7207D01*
X26512Y-7179D01*
X26541Y-7123D01*
X26541Y-6898D01*
X26512Y-6841D01*
X26456Y-6813D01*
X26344Y-6813D01*
X26287Y-6841D01*
X26259Y-6898D01*
X26259Y-6954D01*
X26541Y-7010D01*
X25753Y-6813D02*
X25753Y-7291D01*
X25781Y-7348D01*
X25809Y-7376D01*
X25866Y-7404D01*
X25950Y-7404D01*
X26006Y-7376D01*
X25753Y-7179D02*
X25809Y-7207D01*
X25922Y-7207D01*
X25978Y-7179D01*
X26006Y-7151D01*
X26034Y-7095D01*
X26034Y-6926D01*
X26006Y-6870D01*
X25978Y-6841D01*
X25922Y-6813D01*
X25809Y-6813D01*
X25753Y-6841D01*
X25388Y-7207D02*
X25444Y-7179D01*
X25472Y-7151D01*
X25500Y-7095D01*
X25500Y-6926D01*
X25472Y-6870D01*
X25444Y-6841D01*
X25388Y-6813D01*
X25303Y-6813D01*
X25247Y-6841D01*
X25219Y-6870D01*
X25191Y-6926D01*
X25191Y-7095D01*
X25219Y-7151D01*
X25247Y-7179D01*
X25303Y-7207D01*
X25388Y-7207D01*
X24938Y-6813D02*
X24938Y-7207D01*
X24938Y-6870D02*
X24910Y-6841D01*
X24853Y-6813D01*
X24769Y-6813D01*
X24713Y-6841D01*
X24685Y-6898D01*
X24685Y-7207D01*
X23953Y-7207D02*
X23953Y-6616D01*
X23728Y-6616D01*
X23672Y-6645D01*
X23644Y-6673D01*
X23616Y-6729D01*
X23616Y-6813D01*
X23644Y-6870D01*
X23672Y-6898D01*
X23728Y-6926D01*
X23953Y-6926D01*
X23363Y-7207D02*
X23363Y-6616D01*
X23110Y-7207D02*
X23110Y-6898D01*
X23138Y-6841D01*
X23194Y-6813D01*
X23278Y-6813D01*
X23335Y-6841D01*
X23363Y-6870D01*
X22885Y-6813D02*
X22744Y-7207D01*
X22604Y-6813D02*
X22744Y-7207D01*
X22800Y-7348D01*
X22829Y-7376D01*
X22885Y-7404D01*
X22407Y-7179D02*
X22350Y-7207D01*
X22238Y-7207D01*
X22182Y-7179D01*
X22154Y-7123D01*
X22154Y-7095D01*
X22182Y-7038D01*
X22238Y-7010D01*
X22322Y-7010D01*
X22379Y-6982D01*
X22407Y-6926D01*
X22407Y-6898D01*
X22379Y-6841D01*
X22322Y-6813D01*
X22238Y-6813D01*
X22182Y-6841D01*
X21901Y-7207D02*
X21901Y-6813D01*
X21901Y-6616D02*
X21929Y-6645D01*
X21901Y-6673D01*
X21872Y-6645D01*
X21901Y-6616D01*
X21901Y-6673D01*
X21366Y-7179D02*
X21422Y-7207D01*
X21535Y-7207D01*
X21591Y-7179D01*
X21619Y-7151D01*
X21647Y-7095D01*
X21647Y-6926D01*
X21619Y-6870D01*
X21591Y-6841D01*
X21535Y-6813D01*
X21422Y-6813D01*
X21366Y-6841D01*
X21141Y-7179D02*
X21085Y-7207D01*
X20973Y-7207D01*
X20916Y-7179D01*
X20888Y-7123D01*
X20888Y-7095D01*
X20916Y-7038D01*
X20973Y-7010D01*
X21057Y-7010D01*
X21113Y-6982D01*
X21141Y-6926D01*
X21141Y-6898D01*
X21113Y-6841D01*
X21057Y-6813D01*
X20973Y-6813D01*
X20916Y-6841D01*
X20185Y-7207D02*
X20185Y-6616D01*
X20044Y-6616D01*
X19960Y-6645D01*
X19904Y-6701D01*
X19876Y-6757D01*
X19848Y-6870D01*
X19848Y-6954D01*
X19876Y-7066D01*
X19904Y-7123D01*
X19960Y-7179D01*
X20044Y-7207D01*
X20185Y-7207D01*
X19370Y-7179D02*
X19426Y-7207D01*
X19538Y-7207D01*
X19595Y-7179D01*
X19623Y-7123D01*
X19623Y-6898D01*
X19595Y-6841D01*
X19538Y-6813D01*
X19426Y-6813D01*
X19370Y-6841D01*
X19341Y-6898D01*
X19341Y-6954D01*
X19623Y-7010D01*
X19088Y-7207D02*
X19088Y-6813D01*
X19088Y-6870D02*
X19060Y-6841D01*
X19004Y-6813D01*
X18920Y-6813D01*
X18863Y-6841D01*
X18835Y-6898D01*
X18835Y-7207D01*
X18835Y-6898D02*
X18807Y-6841D01*
X18751Y-6813D01*
X18667Y-6813D01*
X18610Y-6841D01*
X18582Y-6898D01*
X18582Y-7207D01*
X18217Y-7207D02*
X18273Y-7179D01*
X18301Y-7151D01*
X18329Y-7095D01*
X18329Y-6926D01*
X18301Y-6870D01*
X18273Y-6841D01*
X18217Y-6813D01*
X18132Y-6813D01*
X18076Y-6841D01*
X18048Y-6870D01*
X18020Y-6926D01*
X18020Y-7095D01*
X18048Y-7151D01*
X18076Y-7179D01*
X18132Y-7207D01*
X18217Y-7207D01*
X16979Y-7207D02*
X17176Y-6926D01*
X17317Y-7207D02*
X17317Y-6616D01*
X17092Y-6616D01*
X17035Y-6645D01*
X17007Y-6673D01*
X16979Y-6729D01*
X16979Y-6813D01*
X17007Y-6870D01*
X17035Y-6898D01*
X17092Y-6926D01*
X17317Y-6926D01*
X16642Y-7207D02*
X16698Y-7179D01*
X16726Y-7151D01*
X16754Y-7095D01*
X16754Y-6926D01*
X16726Y-6870D01*
X16698Y-6841D01*
X16642Y-6813D01*
X16557Y-6813D01*
X16501Y-6841D01*
X16473Y-6870D01*
X16445Y-6926D01*
X16445Y-7095D01*
X16473Y-7151D01*
X16501Y-7179D01*
X16557Y-7207D01*
X16642Y-7207D01*
X16107Y-7207D02*
X16164Y-7179D01*
X16192Y-7151D01*
X16220Y-7095D01*
X16220Y-6926D01*
X16192Y-6870D01*
X16164Y-6841D01*
X16107Y-6813D01*
X16023Y-6813D01*
X15967Y-6841D01*
X15939Y-6870D01*
X15911Y-6926D01*
X15911Y-7095D01*
X15939Y-7151D01*
X15967Y-7179D01*
X16023Y-7207D01*
X16107Y-7207D01*
X15658Y-7207D02*
X15658Y-6813D01*
X15658Y-6870D02*
X15629Y-6841D01*
X15573Y-6813D01*
X15489Y-6813D01*
X15433Y-6841D01*
X15404Y-6898D01*
X15404Y-7207D01*
X15404Y-6898D02*
X15376Y-6841D01*
X15320Y-6813D01*
X15236Y-6813D01*
X15179Y-6841D01*
X15151Y-6898D01*
X15151Y-7207D01*
G54D12*
X30428Y-10010D02*
X29728Y-10010D01*
X29728Y-10010D02*
X29728Y-11210D01*
X29728Y-11210D02*
X30428Y-11210D01*
X30428Y-11210D02*
X30428Y-10010D01*
X32142Y-13165D02*
X31242Y-13165D01*
X31242Y-13165D02*
X31242Y-12515D01*
X32142Y-11815D02*
X32142Y-11165D01*
X32142Y-11165D02*
X31242Y-11165D01*
X31242Y-11165D02*
X31242Y-11815D01*
X32142Y-12515D02*
X32142Y-13165D01*
X31342Y-10686D02*
X31342Y-9786D01*
X31342Y-9786D02*
X31992Y-9786D01*
X32692Y-10686D02*
X33342Y-10686D01*
X33342Y-10686D02*
X33342Y-9786D01*
X33342Y-9786D02*
X32692Y-9786D01*
X31992Y-10686D02*
X31342Y-10686D01*
X12556Y-13303D02*
X11656Y-13303D01*
X11656Y-13303D02*
X11656Y-12653D01*
X12556Y-11953D02*
X12556Y-11303D01*
X12556Y-11303D02*
X11656Y-11303D01*
X11656Y-11303D02*
X11656Y-11953D01*
X12556Y-12653D02*
X12556Y-13303D01*
G54D10*
X16811Y-11161D02*
G75*
G03X16811Y-11161I-263J0D01*
G74*
G01*
X16528Y-12341D02*
X16928Y-11941D01*
X14568Y-12341D02*
X14568Y-9981D01*
X14568Y-9981D02*
X16928Y-9981D01*
X16928Y-9981D02*
X16928Y-12341D01*
X16928Y-12341D02*
X14568Y-12341D01*
G54D12*
X30387Y-9595D02*
X30387Y-9797D01*
X30375Y-9821D01*
X30363Y-9833D01*
X30339Y-9845D01*
X30291Y-9845D01*
X30268Y-9833D01*
X30256Y-9821D01*
X30244Y-9797D01*
X30244Y-9595D01*
X29994Y-9845D02*
X30137Y-9845D01*
X30065Y-9845D02*
X30065Y-9595D01*
X30089Y-9631D01*
X30113Y-9654D01*
X30137Y-9666D01*
X29929Y-9741D02*
X29929Y-9788D01*
X29941Y-9812D01*
X29965Y-9836D01*
X30013Y-9848D01*
X30096Y-9848D01*
X30144Y-9836D01*
X30168Y-9812D01*
X30179Y-9788D01*
X30179Y-9741D01*
X30168Y-9717D01*
X30144Y-9693D01*
X30096Y-9681D01*
X30013Y-9681D01*
X29965Y-9693D01*
X29941Y-9717D01*
X29929Y-9741D01*
X30179Y-9955D02*
X29929Y-9955D01*
X29929Y-10050D01*
X29941Y-10074D01*
X29953Y-10086D01*
X29977Y-10098D01*
X30013Y-10098D01*
X30037Y-10086D01*
X30048Y-10074D01*
X30060Y-10050D01*
X30060Y-9955D01*
X30108Y-10193D02*
X30108Y-10312D01*
X30179Y-10169D02*
X29929Y-10253D01*
X30179Y-10336D01*
X30179Y-10419D02*
X29929Y-10419D01*
X30108Y-10503D01*
X29929Y-10586D01*
X30179Y-10586D01*
X30179Y-10705D02*
X29929Y-10705D01*
X29929Y-10800D01*
X29941Y-10824D01*
X29953Y-10836D01*
X29977Y-10848D01*
X30013Y-10848D01*
X30037Y-10836D01*
X30048Y-10824D01*
X30060Y-10800D01*
X30060Y-10705D01*
X30203Y-10895D02*
X30203Y-11086D01*
X30179Y-11145D02*
X29929Y-11145D01*
X29929Y-11205D01*
X29941Y-11241D01*
X29965Y-11264D01*
X29989Y-11276D01*
X30037Y-11288D01*
X30072Y-11288D01*
X30120Y-11276D01*
X30144Y-11264D01*
X30168Y-11241D01*
X30179Y-11205D01*
X30179Y-11145D01*
X30179Y-11538D02*
X30060Y-11455D01*
X30179Y-11395D02*
X29929Y-11395D01*
X29929Y-11491D01*
X29941Y-11514D01*
X29953Y-11526D01*
X29977Y-11538D01*
X30013Y-11538D01*
X30037Y-11526D01*
X30048Y-11514D01*
X30060Y-11491D01*
X30060Y-11395D01*
X31814Y-12115D02*
X31671Y-12015D01*
X31814Y-11943D02*
X31514Y-11943D01*
X31514Y-12058D01*
X31528Y-12086D01*
X31542Y-12101D01*
X31571Y-12115D01*
X31614Y-12115D01*
X31642Y-12101D01*
X31657Y-12086D01*
X31671Y-12058D01*
X31671Y-11943D01*
X31614Y-12372D02*
X31814Y-12372D01*
X31500Y-12301D02*
X31714Y-12229D01*
X31714Y-12415D01*
X32392Y-10357D02*
X32492Y-10214D01*
X32563Y-10357D02*
X32563Y-10057D01*
X32449Y-10057D01*
X32421Y-10071D01*
X32406Y-10086D01*
X32392Y-10114D01*
X32392Y-10157D01*
X32406Y-10186D01*
X32421Y-10200D01*
X32449Y-10214D01*
X32563Y-10214D01*
X32278Y-10086D02*
X32263Y-10071D01*
X32235Y-10057D01*
X32163Y-10057D01*
X32135Y-10071D01*
X32121Y-10086D01*
X32106Y-10114D01*
X32106Y-10143D01*
X32121Y-10186D01*
X32292Y-10357D01*
X32106Y-10357D01*
X12227Y-12253D02*
X12084Y-12153D01*
X12227Y-12081D02*
X11927Y-12081D01*
X11927Y-12196D01*
X11942Y-12224D01*
X11956Y-12238D01*
X11984Y-12253D01*
X12027Y-12253D01*
X12056Y-12238D01*
X12070Y-12224D01*
X12084Y-12196D01*
X12084Y-12081D01*
X11927Y-12524D02*
X11927Y-12381D01*
X12070Y-12367D01*
X12056Y-12381D01*
X12042Y-12410D01*
X12042Y-12481D01*
X12056Y-12510D01*
X12070Y-12524D01*
X12099Y-12538D01*
X12170Y-12538D01*
X12199Y-12524D01*
X12213Y-12510D01*
X12227Y-12481D01*
X12227Y-12410D01*
X12213Y-12381D01*
X12199Y-12367D01*
G54D10*
X12973Y-10861D02*
X13292Y-10861D01*
X13329Y-10880D01*
X13348Y-10898D01*
X13367Y-10936D01*
X13367Y-11011D01*
X13348Y-11048D01*
X13329Y-11067D01*
X13292Y-11086D01*
X12973Y-11086D01*
X13011Y-11255D02*
X12992Y-11273D01*
X12973Y-11311D01*
X12973Y-11405D01*
X12992Y-11442D01*
X13011Y-11461D01*
X13048Y-11480D01*
X13086Y-11480D01*
X13142Y-11461D01*
X13367Y-11236D01*
X13367Y-11480D01*
X15497Y-10298D02*
X15497Y-10110D01*
X15103Y-10110D01*
X15497Y-10429D02*
X15103Y-10429D01*
X15384Y-10560D01*
X15103Y-10692D01*
X15497Y-10692D01*
X15103Y-10842D02*
X15103Y-11085D01*
X15253Y-10954D01*
X15253Y-11010D01*
X15272Y-11048D01*
X15291Y-11067D01*
X15328Y-11085D01*
X15422Y-11085D01*
X15459Y-11067D01*
X15478Y-11048D01*
X15497Y-11010D01*
X15497Y-10898D01*
X15478Y-10860D01*
X15459Y-10842D01*
X15497Y-11273D02*
X15497Y-11348D01*
X15478Y-11385D01*
X15459Y-11404D01*
X15403Y-11442D01*
X15328Y-11460D01*
X15178Y-11460D01*
X15141Y-11442D01*
X15122Y-11423D01*
X15103Y-11385D01*
X15103Y-11310D01*
X15122Y-11273D01*
X15141Y-11254D01*
X15178Y-11235D01*
X15272Y-11235D01*
X15309Y-11254D01*
X15328Y-11273D01*
X15347Y-11310D01*
X15347Y-11385D01*
X15328Y-11423D01*
X15309Y-11442D01*
X15272Y-11460D01*
X15497Y-11835D02*
X15497Y-11610D01*
X15497Y-11723D02*
X15103Y-11723D01*
X15159Y-11685D01*
X15197Y-11648D01*
X15216Y-11610D01*
X15234Y-12173D02*
X15497Y-12173D01*
X15084Y-12079D02*
X15366Y-11985D01*
X15366Y-12229D01*
M02*
